<svg xmlns="http://www.w3.org/2000/svg" aria-hidden="true" style="position:absolute;width:0;height:0;overflow:hidden">
    <defs>
        <symbol id="linkedin" viewBox="0 0 32 32">
            <path
                d="M29 0h-26c-1.65 0-3 1.35-3 3v26c0 1.65 1.35 3 3 3h26c1.65 0 3-1.35 3-3v-26c0-1.65-1.35-3-3-3zM12 26h-4v-14h4v14zM10 10c-1.106 0-2-0.894-2-2s0.894-2 2-2c1.106 0 2 0.894 2 2s-0.894 2-2 2zM26 26h-4v-8c0-1.106-0.894-2-2-2s-2 0.894-2 2v8h-4v-14h4v2.481c0.825-1.131 2.087-2.481 3.5-2.481 2.488 0 4.5 2.238 4.5 5v9z" />
        </symbol>
        <symbol id="github" viewBox="0 0 32 32">
            <path
                d="M16 0.395c-8.836 0-16 7.163-16 16 0 7.069 4.585 13.067 10.942 15.182 0.8 0.148 1.094-0.347 1.094-0.77 0-0.381-0.015-1.642-0.022-2.979-4.452 0.968-5.391-1.888-5.391-1.888-0.728-1.849-1.776-2.341-1.776-2.341-1.452-0.993 0.11-0.973 0.11-0.973 1.606 0.113 2.452 1.649 2.452 1.649 1.427 2.446 3.743 1.739 4.656 1.33 0.143-1.034 0.558-1.74 1.016-2.14-3.554-0.404-7.29-1.777-7.29-7.907 0-1.747 0.625-3.174 1.649-4.295-0.166-0.403-0.714-2.030 0.155-4.234 0 0 1.344-0.43 4.401 1.64 1.276-0.355 2.645-0.532 4.005-0.539 1.359 0.006 2.729 0.184 4.008 0.539 3.054-2.070 4.395-1.64 4.395-1.64 0.871 2.204 0.323 3.831 0.157 4.234 1.026 1.12 1.647 2.548 1.647 4.295 0 6.145-3.743 7.498-7.306 7.895 0.574 0.497 1.085 1.47 1.085 2.963 0 2.141-0.019 3.864-0.019 4.391 0 0.426 0.288 0.925 1.099 0.768 6.354-2.118 10.933-8.113 10.933-15.18 0-8.837-7.164-16-16-16z" />
        </symbol>
        <symbol id="telegram" viewBox="0 0 32 32">
            <path
                d="M16 0c-8.838 0-16 7.162-16 16s7.162 16 16 16 16-7.163 16-16-7.163-16-16-16zM23.863 10.969l-2.625 12.369c-0.181 0.881-0.712 1.087-1.45 0.681l-4-2.956-1.919 1.869c-0.225 0.219-0.4 0.4-0.8 0.4-0.519 0-0.431-0.194-0.606-0.688l-1.363-4.475-3.956-1.231c-0.856-0.262-0.862-0.85 0.194-1.269l15.412-5.95c0.7-0.319 1.381 0.169 1.113 1.25z" />
        </symbol>
        <symbol id="calculator" viewBox="0 0 100 100">
            <path
                d="M 31 17.988281 C 23.82 17.988281 18 23.808281 18 30.988281 L 18 69.988281 C 18 77.168281 23.82 82.988281 31 82.988281 L 70 82.988281 C 77.179 82.988281 83 77.168281 83 69.988281 L 83 30.988281 C 83 23.808281 77.18 17.988281 70 17.988281 L 31 17.988281 z M 31 19.988281 L 70 19.988281 C 76.075 19.988281 81 24.913281 81 30.988281 L 81 69.988281 C 81 76.063281 76.075 80.988281 70 80.988281 L 31 80.988281 C 24.925 80.988281 20 76.063281 20 69.988281 L 20 30.988281 C 20 24.913281 24.924 19.988281 31 19.988281 z M 33.822266 22.988281 C 27.837266 22.988281 22.986328 27.839219 22.986328 33.824219 L 22.986328 67.150391 C 22.986328 73.135391 27.837266 77.988281 33.822266 77.988281 L 67.148438 77.988281 C 73.133437 77.988281 77.986328 73.136391 77.986328 67.150391 L 77.986328 48.488281 C 77.986328 48.212281 77.762328 47.988281 77.486328 47.988281 C 77.210328 47.988281 76.986328 48.212281 76.986328 48.488281 L 76.986328 67.150391 C 76.986328 72.583391 72.581437 76.988281 67.148438 76.988281 L 33.824219 76.988281 C 28.391219 76.988281 23.986328 72.583391 23.986328 67.150391 L 23.986328 33.824219 C 23.986328 28.391219 28.389266 23.988281 33.822266 23.988281 L 67.486328 23.988281 C 67.762328 23.988281 67.986328 23.764281 67.986328 23.488281 C 67.986328 23.212281 67.762328 22.988281 67.486328 22.988281 L 33.822266 22.988281 z M 40.447266 29.5 C 37.720266 29.5 35.5 31.719266 35.5 34.447266 L 35.5 67.552734 C 35.5 70.279734 37.719266 72.5 40.447266 72.5 L 60.552734 72.5 C 63.279734 72.5 65.499047 70.279734 65.498047 67.552734 L 65.498047 34.447266 C 65.498047 31.719266 63.280734 29.5 60.552734 29.5 L 40.447266 29.5 z M 40.447266 30.5 L 60.552734 30.5 C 62.728734 30.5 64.498047 32.271266 64.498047 34.447266 L 64.498047 67.552734 C 64.498047 69.728734 62.729734 71.5 60.552734 71.5 L 40.447266 71.5 C 38.271266 71.5 36.5 69.729734 36.5 67.552734 L 36.5 34.447266 C 36.5 32.271266 38.270266 30.5 40.447266 30.5 z M 42.398438 33 C 40.524437 33 39 34.524437 39 36.398438 L 39 41.601562 C 39 43.475563 40.524437 45 42.398438 45 L 58.601562 45 C 60.475563 45 62 43.475563 62 41.601562 L 62 36.398438 C 62 34.524437 60.474609 33 58.599609 33 L 42.398438 33 z M 42.398438 34 L 58.601562 34 C 59.924563 34 61 35.075437 61 36.398438 L 61 41.601562 C 61 42.924563 59.923609 44 58.599609 44 L 42.398438 44 C 41.075437 44 40 42.924563 40 41.601562 L 40 36.398438 C 40 35.075437 41.075437 34 42.398438 34 z M 77.486328 36.566406 C 77.210328 36.566406 76.986328 36.790406 76.986328 37.066406 L 76.986328 39.066406 C 76.986328 39.342406 77.210328 39.566406 77.486328 39.566406 C 77.762328 39.566406 77.986328 39.343406 77.986328 39.066406 L 77.986328 37.066406 C 77.986328 36.790406 77.762328 36.566406 77.486328 36.566406 z M 77.486328 40.566406 C 77.210328 40.566406 76.986328 40.790406 76.986328 41.066406 L 76.986328 45.066406 C 76.986328 45.342406 77.210328 45.566406 77.486328 45.566406 C 77.762328 45.566406 77.986328 45.343406 77.986328 45.066406 L 77.986328 41.066406 C 77.986328 40.790406 77.762328 40.566406 77.486328 40.566406 z M 41.5 47.5 C 39.846 47.5 38.5 48.846 38.5 50.5 C 38.5 52.154 39.846 53.5 41.5 53.5 C 43.154 53.5 44.5 52.154 44.5 50.5 C 44.5 48.846 43.154 47.5 41.5 47.5 z M 50.5 47.5 C 48.846 47.5 47.5 48.846 47.5 50.5 C 47.5 52.154 48.846 53.5 50.5 53.5 C 52.154 53.5 53.5 52.154 53.5 50.5 C 53.5 48.846 52.154 47.5 50.5 47.5 z M 59.5 47.5 C 57.846 47.5 56.5 48.846 56.5 50.5 C 56.5 52.154 57.846 53.5 59.5 53.5 C 61.154 53.5 62.5 52.154 62.5 50.5 C 62.5 48.846 61.154 47.5 59.5 47.5 z M 41.5 48.5 C 42.603 48.5 43.5 49.397 43.5 50.5 C 43.5 51.603 42.603 52.5 41.5 52.5 C 40.397 52.5 39.5 51.603 39.5 50.5 C 39.5 49.397 40.397 48.5 41.5 48.5 z M 50.5 48.5 C 51.603 48.5 52.5 49.397 52.5 50.5 C 52.5 51.603 51.603 52.5 50.5 52.5 C 49.397 52.5 48.5 51.603 48.5 50.5 C 48.5 49.397 49.397 48.5 50.5 48.5 z M 59.5 48.5 C 60.603 48.5 61.5 49.397 61.5 50.5 C 61.5 51.603 60.603 52.5 59.5 52.5 C 58.397 52.5 57.5 51.603 57.5 50.5 C 57.5 49.397 58.397 48.5 59.5 48.5 z M 41.5 55.5 C 39.846 55.5 38.5 56.846 38.5 58.5 C 38.5 60.154 39.846 61.5 41.5 61.5 C 43.154 61.5 44.5 60.154 44.5 58.5 C 44.5 56.846 43.154 55.5 41.5 55.5 z M 50.5 55.5 C 48.846 55.5 47.5 56.846 47.5 58.5 C 47.5 60.154 48.846 61.5 50.5 61.5 C 52.154 61.5 53.5 60.154 53.5 58.5 C 53.5 56.846 52.154 55.5 50.5 55.5 z M 59.5 55.5 C 57.846 55.5 56.5 56.846 56.5 58.5 C 56.5 60.154 57.846 61.5 59.5 61.5 C 61.154 61.5 62.5 60.154 62.5 58.5 C 62.5 56.846 61.154 55.5 59.5 55.5 z M 41.5 56.5 C 42.603 56.5 43.5 57.397 43.5 58.5 C 43.5 59.603 42.603 60.5 41.5 60.5 C 40.397 60.5 39.5 59.603 39.5 58.5 C 39.5 57.397 40.397 56.5 41.5 56.5 z M 50.5 56.5 C 51.603 56.5 52.5 57.397 52.5 58.5 C 52.5 59.603 51.603 60.5 50.5 60.5 C 49.397 60.5 48.5 59.603 48.5 58.5 C 48.5 57.397 49.397 56.5 50.5 56.5 z M 59.5 56.5 C 60.603 56.5 61.5 57.397 61.5 58.5 C 61.5 59.603 60.603 60.5 59.5 60.5 C 58.397 60.5 57.5 59.603 57.5 58.5 C 57.5 57.397 58.397 56.5 59.5 56.5 z M 41.5 63.5 C 39.846 63.5 38.5 64.846 38.5 66.5 C 38.5 68.154 39.846 69.5 41.5 69.5 L 50.5 69.5 C 52.154 69.5 53.5 68.154 53.5 66.5 C 53.5 64.846 52.154 63.5 50.5 63.5 L 41.5 63.5 z M 59.5 63.5 C 57.846 63.5 56.5 64.846 56.5 66.5 C 56.5 68.154 57.846 69.5 59.5 69.5 C 61.154 69.5 62.5 68.154 62.5 66.5 C 62.5 64.846 61.154 63.5 59.5 63.5 z M 41.5 64.5 L 50.5 64.5 C 51.603 64.5 52.5 65.397 52.5 66.5 C 52.5 67.603 51.603 68.5 50.5 68.5 L 41.5 68.5 C 40.397 68.5 39.5 67.603 39.5 66.5 C 39.5 65.397 40.397 64.5 41.5 64.5 z M 59.5 64.5 C 60.603 64.5 61.5 65.397 61.5 66.5 C 61.5 67.603 60.603 68.5 59.5 68.5 C 58.397 68.5 57.5 67.603 57.5 66.5 C 57.5 65.397 58.397 64.5 59.5 64.5 z" />
        </symbol>
    </defs>
</svg>
